<?xml version="1.0" standalone="no"?>
<!DOCTYPE svg PUBLIC "-//W3C//DTD SVG 20010904//EN"
 "http://www.w3.org/TR/2001/REC-SVG-20010904/DTD/svg10.dtd">
<svg version="1.0" xmlns="http://www.w3.org/2000/svg"
 width="878.000000pt" height="911.000000pt" viewBox="0 0 878.000000 911.000000"
 preserveAspectRatio="xMidYMid meet">

<g transform="translate(0.000000,911.000000) scale(0.100000,-0.100000)"
fill="#000000" stroke="none">
<path d="M4745 8723 c-274 -17 -556 -81 -709 -161 -82 -43 -203 -157 -267
-252 -48 -72 -203 -380 -269 -535 -128 -301 -225 -622 -355 -1175 -66 -279
-210 -917 -258 -1145 -8 -38 -81 -375 -161 -748 -80 -373 -146 -690 -146 -704
0 -14 -31 -186 -69 -382 -38 -196 -86 -441 -106 -546 -36 -189 -151 -695 -160
-704 -3 -2 -114 5 -248 17 -449 41 -635 23 -852 -83 -205 -99 -299 -265 -299
-525 1 -151 21 -200 130 -306 45 -45 107 -97 137 -117 126 -84 383 -161 672
-201 290 -40 833 -46 1075 -12 224 32 522 113 667 182 191 91 373 326 434 559
30 114 36 329 15 509 -28 239 -18 349 43 478 55 116 77 135 196 161 195 44
744 78 943 58 205 -21 337 -73 417 -164 97 -111 108 -171 108 -602 1 -407 -20
-560 -82 -605 -49 -34 -148 -66 -308 -99 -263 -54 -405 -116 -515 -225 -148
-145 -198 -287 -169 -476 15 -97 53 -177 129 -270 98 -122 212 -192 437 -265
268 -88 362 -96 775 -66 541 40 767 91 1166 261 328 141 523 276 607 420 62
108 87 327 138 1195 34 562 42 948 24 1080 -9 63 -26 395 -41 780 -31 832 -52
1144 -104 1575 -55 454 -133 828 -268 1300 -174 603 -310 898 -557 1205 -109
136 -263 282 -363 345 -115 73 -280 138 -412 163 -58 11 -125 25 -150 32 -113
32 -505 55 -905 53 -159 -1 -312 -3 -340 -5z m605 -173 c238 -11 416 -26 460
-39 19 -5 94 -17 165 -26 162 -21 272 -52 400 -115 116 -57 199 -122 306 -241
246 -270 376 -508 525 -954 260 -781 378 -1446 434 -2455 11 -186 71 -1555 73
-1650 4 -214 -35 -1062 -68 -1470 -34 -421 -53 -498 -137 -583 -182 -182 -732
-408 -1168 -481 -100 -16 -275 -32 -450 -41 -58 -2 -148 -9 -200 -14 -139 -13
-289 13 -485 84 -191 69 -275 124 -351 231 -55 77 -74 134 -74 224 0 82 28
143 103 224 94 101 222 157 471 206 278 55 408 128 456 256 46 124 55 223 54
624 0 484 -8 528 -123 680 -84 112 -197 181 -370 228 -93 25 -106 26 -416 29
-267 2 -349 -1 -495 -18 -415 -48 -491 -82 -583 -257 -80 -153 -106 -305 -87
-515 25 -268 27 -316 19 -407 -4 -53 -19 -132 -34 -177 -48 -151 -194 -337
-313 -397 -123 -62 -425 -143 -647 -172 -109 -15 -197 -19 -400 -18 -572 3
-870 51 -1213 197 -159 68 -223 157 -225 312 -1 142 79 245 264 336 153 76
368 96 704 65 272 -25 255 -21 255 -65 0 -91 117 -123 161 -45 18 31 167 664
219 929 17 88 45 246 61 350 40 262 80 457 245 1205 8 36 19 85 24 110 5 25
18 86 29 135 11 50 53 248 95 440 389 1811 474 2112 756 2689 171 350 265 440
535 509 282 73 597 96 1025 77z"/>
<path d="M5275 7644 c-16 -2 -77 -9 -135 -15 -225 -24 -516 -99 -676 -175
-142 -67 -236 -162 -291 -294 -23 -57 -27 -79 -27 -175 -1 -102 1 -115 28
-170 58 -119 203 -237 346 -279 229 -68 970 -111 1235 -71 222 34 428 111 513
194 86 84 141 255 128 401 -27 299 -115 418 -374 505 -181 61 -354 86 -577 83
-77 0 -153 -3 -170 -4z m518 -203 c126 -28 255 -75 307 -112 45 -33 75 -75 90
-129 17 -56 28 -181 21 -230 -6 -45 -6 -45 -71 -68 -154 -56 -385 -82 -717
-82 -231 0 -354 10 -468 36 -157 37 -334 148 -410 259 -33 47 -39 65 -40 108
l0 51 80 34 c156 66 370 119 595 148 159 20 487 12 613 -15z"/>
</g>
</svg>
